<?xml version="1.0" encoding="iso-8859-1"?>
<!-- Uploaded to: SVG Repo, www.svgrepo.com, Generator: SVG Repo Mixer Tools -->
<svg version="1.1" id="Layer_1" xmlns="http://www.w3.org/2000/svg" xmlns:xlink="http://www.w3.org/1999/xlink" 
	 viewBox="0 0 512 512" xml:space="preserve">
<path style="fill:#969696;" d="M373.107,8.17h-32.681v441.191h32.681c17.975,0,32.681-14.706,32.681-32.681V40.851
	C405.788,22.877,391.081,8.17,373.107,8.17z"/>
<path style="fill:#B9B9B9;" d="M309.633,256.001l63.474-215.149c0-17.975-14.706-32.681-32.681-32.681h-32.681l-78.979,22.982
	L149.787,8.17H84.425c-17.975,0-32.681,14.706-32.681,32.681v375.83c0,17.974,14.706,32.681,32.681,32.681h256.001
	c17.975,0,32.681-14.706,32.681-32.681L309.633,256.001z"/>
<polygon style="fill:#D5F6F5;" points="373.107,40.851 373.107,416.681 340.426,416.681 275.064,228.766 340.426,40.851 "/>
<rect x="84.425" y="40.851" style="fill:#FFFFFF;" width="256.001" height="375.831"/>
<polygon style="fill:#FEDC3D;" points="307.745,8.17 307.745,62.638 275.064,62.638 253.277,35.404 275.064,8.17 "/>
<rect x="149.787" y="8.17" style="fill:#FFF1B1;" width="125.277" height="54.468"/>
<g>
	<path style="fill:#B9B9B9;" d="M307.745,193.362H149.787c-4.513,0-8.17-3.658-8.17-8.17c0-4.512,3.657-8.17,8.17-8.17h157.958
		c4.513,0,8.17,3.658,8.17,8.17C315.915,189.704,312.257,193.362,307.745,193.362z"/>
	<path style="fill:#B9B9B9;" d="M307.745,236.937H149.787c-4.513,0-8.17-3.658-8.17-8.17s3.657-8.17,8.17-8.17h157.958
		c4.513,0,8.17,3.658,8.17,8.17S312.257,236.937,307.745,236.937z"/>
	<path style="fill:#B9B9B9;" d="M228.766,280.511h-78.979c-4.513,0-8.17-3.658-8.17-8.17s3.657-8.17,8.17-8.17h78.979
		c4.513,0,8.17,3.658,8.17,8.17S233.278,280.511,228.766,280.511z"/>
</g>
<path style="fill:#FE5F1A;" d="M351.319,285.957V503.83c60.166,0,108.936-48.771,108.936-108.936S411.485,285.957,351.319,285.957z"
	/>
<path style="fill:#FE834D;" d="M351.319,285.957c42.115,0,76.255,48.771,76.255,108.936S393.434,503.83,351.319,503.83
	c-60.166,0-108.936-48.771-108.936-108.936S291.154,285.957,351.319,285.957z"/>
<path style="fill:#FFFFFF;" d="M401.389,421.854l-26.961-26.961l26.961-26.961c6.382-6.382,6.382-16.727,0-23.109
	c-6.381-6.382-16.727-6.382-23.109,0l-26.961,26.961l-26.961-26.961c-6.382-6.381-16.727-6.381-23.109,0
	c-6.382,6.382-6.382,16.727,0,23.109l26.961,26.961l-26.961,26.961c-6.382,6.382-6.382,16.727,0,23.109s16.727,6.382,23.109,0
	l26.961-26.961l26.961,26.961c6.382,6.382,16.727,6.382,23.109,0C407.77,438.581,407.769,428.236,401.389,421.854z"/>
<path d="M220.601,441.191H84.425c-13.515,0-24.511-10.995-24.511-24.511V40.851c0-13.515,10.995-24.511,24.511-24.511h57.192v73.532
	c0,13.515,10.996,24.511,24.511,24.511h125.277c13.515,0,24.511-10.996,24.511-24.511V16.34h57.192
	c13.515,0,24.511,10.996,24.511,24.511v223.325c0,4.512,3.657,8.17,8.17,8.17s8.17-3.658,8.17-8.17V40.851
	C413.958,18.326,395.631,0,373.107,0H84.425C61.899,0,43.574,18.326,43.574,40.851v375.83c0,22.526,18.325,40.851,40.851,40.851
	h136.177c4.513,0,8.17-3.658,8.17-8.17S225.114,441.191,220.601,441.191z M291.404,98.043H166.127c-4.506,0-8.17-3.666-8.17-8.17
	V70.809h141.617v19.064C299.575,94.377,295.909,98.043,291.404,98.043z M299.575,54.468H157.957V16.34h141.617V54.468z"/>
<path d="M116.561,49.021c4.513,0,8.17-3.658,8.17-8.17s-3.658-8.17-8.17-8.17H84.425c-4.513,0-8.17,3.658-8.17,8.17v375.83
	c0,4.512,3.657,8.17,8.17,8.17h126.953c4.513,0,8.17-3.658,8.17-8.17s-3.657-8.17-8.17-8.17H92.595V49.021H116.561z"/>
<path d="M373.107,263.123c4.513,0,8.17-3.658,8.17-8.17V40.851c0-4.512-3.657-8.17-8.17-8.17h-32.681c-4.513,0-8.17,3.658-8.17,8.17
	s3.657,8.17,8.17,8.17h24.511v205.931C364.936,259.465,368.593,263.123,373.107,263.123z"/>
<path d="M351.319,277.787c-64.572,0-117.107,52.533-117.107,117.107S286.747,512,351.319,512s117.107-52.533,117.107-117.107
	S415.891,277.787,351.319,277.787z M351.319,495.66c-55.563,0-100.766-45.203-100.766-100.766s45.203-100.766,100.766-100.766
	s100.766,45.203,100.766,100.766S406.882,495.66,351.319,495.66z"/>
<path d="M414.345,356.379c0-6.547-2.55-12.703-7.179-17.332c-4.63-4.63-10.785-7.179-17.332-7.179s-12.702,2.55-17.332,7.179
	l-21.183,21.183l-21.183-21.183c-4.63-4.63-10.785-7.179-17.332-7.179s-12.702,2.55-17.331,7.179
	c-4.63,4.63-7.18,10.785-7.18,17.333c0,6.547,2.55,12.702,7.179,17.332l21.184,21.183l-21.184,21.183
	c-4.629,4.63-7.179,10.785-7.179,17.332s2.55,12.703,7.179,17.332c4.63,4.63,10.785,7.179,17.332,7.179s12.702-2.55,17.332-7.179
	l21.183-21.183l21.183,21.183c4.63,4.63,10.785,7.179,17.332,7.179s12.702-2.55,17.331-7.179c4.63-4.63,7.18-10.785,7.18-17.333
	c0-6.547-2.55-12.702-7.179-17.332l-21.184-21.183l21.184-21.183C411.794,369.081,414.345,362.926,414.345,356.379z
	 M395.611,362.157l-26.961,26.961c-1.532,1.532-2.392,3.61-2.392,5.777s0.861,4.245,2.392,5.777l26.961,26.961
	c1.544,1.544,2.393,3.595,2.393,5.778s-0.85,4.234-2.393,5.777c-1.543,1.544-3.595,2.393-5.777,2.393s-4.234-0.85-5.777-2.393
	l-26.961-26.961c-1.596-1.595-3.688-2.393-5.778-2.393c-2.09,0-4.182,0.797-5.778,2.393l-26.961,26.961
	c-1.543,1.544-3.595,2.393-5.777,2.393c-2.182,0-4.234-0.85-5.778-2.393c-1.543-1.543-2.392-3.594-2.392-5.777
	s0.85-4.234,2.393-5.778l26.961-26.961c1.532-1.532,2.392-3.61,2.392-5.777s-0.861-4.245-2.392-5.777l-26.961-26.961
	c-1.544-1.544-2.393-3.595-2.393-5.778c0-2.183,0.85-4.234,2.393-5.777c1.543-1.544,3.595-2.393,5.777-2.393
	c2.182,0,4.234,0.85,5.777,2.393l26.961,26.961c3.192,3.191,8.364,3.191,11.555,0l26.961-26.961
	c1.543-1.544,3.595-2.393,5.777-2.393c2.182,0,4.234,0.85,5.778,2.393c1.543,1.543,2.392,3.594,2.392,5.777
	C398.003,358.562,397.154,360.613,395.611,362.157z"/>
</svg>